<mxfile host="drawio-plugin" modified="2022-06-10T22:07:19.316Z" agent="5.0 (Macintosh; Intel Mac OS X 10_15_7) AppleWebKit/537.36 (KHTML, like Gecko) Chrome/97.0.4692.45 Safari/537.36" etag="bm-fEXcW4ieThsevDvq7" version="15.5.4" type="embed"><diagram id="23iRSUPoRavnBvh4doch" name="Page-1"><mxGraphModel dx="703" dy="301" grid="1" gridSize="10" guides="1" tooltips="1" connect="1" arrows="1" fold="1" page="1" pageScale="1" pageWidth="827" pageHeight="1169" math="0" shadow="0"><root><mxCell id="0"/><mxCell id="1" parent="0"/><mxCell id="2" value="Store" style="shape=cylinder3;whiteSpace=wrap;html=1;boundedLbl=1;backgroundOutline=1;size=15;" vertex="1" parent="1"><mxGeometry x="300" y="90" width="60" height="80" as="geometry"/></mxCell><mxCell id="4" style="edgeStyle=orthogonalEdgeStyle;rounded=0;orthogonalLoop=1;jettySize=auto;html=1;entryX=0.5;entryY=1;entryDx=0;entryDy=0;entryPerimeter=0;" edge="1" parent="1" source="3" target="2"><mxGeometry relative="1" as="geometry"><mxPoint x="330" y="190" as="targetPoint"/></mxGeometry></mxCell><mxCell id="3" value="Identity" style="rounded=1;whiteSpace=wrap;html=1;" vertex="1" parent="1"><mxGeometry x="120" y="200" width="120" height="60" as="geometry"/></mxCell><mxCell id="7" style="edgeStyle=orthogonalEdgeStyle;rounded=0;orthogonalLoop=1;jettySize=auto;html=1;" edge="1" parent="1" source="6"><mxGeometry relative="1" as="geometry"><mxPoint x="330" y="170" as="targetPoint"/></mxGeometry></mxCell><mxCell id="6" value="Aqua" style="rounded=1;whiteSpace=wrap;html=1;" vertex="1" parent="1"><mxGeometry x="440" y="200" width="120" height="60" as="geometry"/></mxCell></root></mxGraphModel></diagram></mxfile>